<?xml version="1.0" standalone="no"?><!DOCTYPE svg PUBLIC "-//W3C//DTD SVG 1.1//EN" "http://www.w3.org/Graphics/SVG/1.1/DTD/svg11.dtd"><svg t="1701525156482" class="icon" viewBox="0 0 1024 1024" version="1.1" xmlns="http://www.w3.org/2000/svg" p-id="2450" xmlns:xlink="http://www.w3.org/1999/xlink" width="48" height="48"><path d="M0 0h476.928c-112.64 11.136-222.336 55.936-306.048 132.864C71.296 221.056 10.112 348.928 0 481.28V0zM530.816 0H1024v474.496c-10.112-112.512-50.176-225.152-128.768-308.224C802.944 63.872 667.904 5.376 530.816 0z" fill="#FFFFFF" p-id="2451"></path><path d="M115.072 524.928C106.88 331.52 256.896 148.608 447.488 116.352c-1.152 62.08 3.968 124.416-1.92 186.368-39.04 0.128-81.152-5.888-116.736 14.08-39.424 19.2-66.304 61.44-63.104 105.856 1.408 63.872-1.664 128 1.92 192 2.432 48.256 40.96 93.312 89.344 100.224 29.568 3.84 59.392 3.072 89.216 4.096 4.096 61.44 0.512 123.136 1.536 184.704C267.52 873.088 119.68 708.608 115.072 524.928zM576.256 116.352C771.2 149.248 923.648 340.48 907.52 538.24 894.592 716.928 750.848 874.24 574.08 903.552c1.152-61.184-2.816-122.624 1.408-183.808 49.792-2.304 110.976 7.424 146.816-36.096 45.312-50.048 30.208-122.368 32.896-183.808-2.56-51.712 11.264-112.256-26.112-154.88-38.144-42.752-99.84-42.112-152.448-40.96-2.176-62.464-0.384-125.056-0.384-187.648z" fill="#FFFFFF" p-id="2452"></path><path d="M387.712 413.056c84.608-4.864 170.112-0.896 254.976-1.536 4.48 64.384-0.128 128.896-0.512 193.408-85.376 3.456-171.008 2.816-256.384 0.384-1.024-63.744-7.68-129.536 1.92-192.256zM0 539.392c8.32 115.456 54.4 227.84 132.608 313.6 90.368 101.76 222.336 164.608 358.4 171.008H0V539.392zM866.176 879.232C957.184 794.368 1010.688 675.072 1024 552.192V1024H539.52c121.088-9.6 239.104-59.904 326.656-144.768z" fill="#FFFFFF" p-id="2453"></path><path d="M476.928 0h53.888c137.088 5.376 272.128 63.872 364.416 166.272 78.592 83.072 118.656 195.712 128.768 308.224v77.696c-13.312 122.88-66.816 242.176-157.824 327.04C778.624 964.096 660.608 1014.4 539.52 1024h-48.512c-136.064-6.4-268.032-69.248-358.4-171.008C54.4 767.232 8.32 654.848 0 539.392V481.28c10.112-132.352 71.296-260.224 170.88-348.416C254.592 55.936 364.288 11.136 476.928 0M115.072 524.928c4.608 183.68 152.448 348.16 332.672 378.752-1.024-61.568 2.56-123.264-1.536-184.704-29.824-1.024-59.648-0.256-89.216-4.096-48.384-6.912-86.912-51.968-89.344-100.224-3.584-64-0.512-128.128-1.92-192-3.2-44.416 23.68-86.656 63.104-105.856 35.584-19.968 77.696-13.952 116.736-14.08 5.888-61.952 0.768-124.288 1.92-186.368C256.896 148.608 106.88 331.52 115.072 524.928M576.256 116.352c0 62.592-1.792 125.184 0.384 187.648 52.608-1.152 114.304-1.792 152.448 40.96 37.376 42.624 23.552 103.168 26.112 154.88-2.688 61.44 12.416 133.76-32.896 183.808-35.84 43.52-97.024 33.792-146.816 36.096-4.224 61.184-0.256 122.624-1.408 183.808C750.848 874.24 894.592 716.928 907.52 538.24 923.648 340.48 771.2 149.248 576.256 116.352M387.712 413.056c-9.6 62.72-2.944 128.512-1.92 192.256 85.376 2.432 171.008 3.072 256.384-0.384 0.384-64.512 4.992-129.024 0.512-193.408-84.864 0.64-170.368-3.328-254.976 1.536z" fill="#AF2434" p-id="2454"></path></svg>